<svg id="图层_1" data-name="图层 1" xmlns="http://www.w3.org/2000/svg" viewBox="0 0 630 261.6"><defs><style>.cls-1,.cls-2{fill:#bf0404;}.cls-2{font-size:100px;font-family:FZCQK--GBK1-0, FZCuQian-M17;}</style></defs><title>大LOGO</title><path class="cls-1" d="M155.35,423.56q39-.09,77.92-.16v29.08q-27.69,1-55.37,2.14V473.4q24.4-1.62,48.85-3v29.23q-24.45,2.16-48.85,4.8v21.29q29.22-4,58.54-7.1v29.13q-40.69,5.85-81.09,13.34Z" transform="translate(-155.35 -421.75)"/><path class="cls-1" d="M244,422.46h23.84q10,37,20.32,73.95,9.63-37,19.53-74h23.83Q314.93,481.65,299,541.09c-8.49.88-12.73,1.35-21.21,2.33Q260.45,483.08,244,422.46Z" transform="translate(-155.35 -421.75)"/><path class="cls-1" d="M338.74,423.24l77.93-.05V448.6q-27.69.24-55.38.65V465q24.42-.6,48.86-1c0,10.16,0,15.24,0,25.4q-24.42.52-48.85,1.52v17.82q29.25-1.49,58.55-2.15c0,10.2,0,15.31,0,25.51q-40.6,1.39-81.09,4.43Z" transform="translate(-155.35 -421.75)"/><path class="cls-1" d="M427.31,423.18H481.5a37,37,0,0,1,6.43.68,20.18,20.18,0,0,1,7.71,3.3,19.65,19.65,0,0,1,6.36,7.15,37.69,37.69,0,0,1,3.66,10.61,81.3,81.3,0,0,1,1.4,13.5,50.49,50.49,0,0,1-1.33,13.63,35.74,35.74,0,0,1-4.16,10q-2.76,4.56-5.19,6l-3.16,2.07q7.84,21.25,15.67,42.52c-9.75-.23-14.63-.31-24.38-.39q-7.83-20.72-15.67-41.43c-7.54,0-11.31,0-18.84.08v41.41c-9.08.11-13.62.2-22.7.44Zm22.69,25v18.76c10.6-.05,15.9-.06,26.5,0a10.12,10.12,0,0,0,4.41-.89,7.4,7.4,0,0,0,3.18-3.19,10.49,10.49,0,0,0,1.12-5.89,10.23,10.23,0,0,0-2.35-6.42,7.21,7.21,0,0,0-5.66-2.35C466.32,448.13,460.88,448.14,450,448.17Z" transform="translate(-155.35 -421.75)"/><path class="cls-1" d="M516.07,422.38h22.35q0,20.24,0,40.46,17.45.29,34.86.66,0-20.55,0-41.11h22.05V536.69c-8.82-.67-13.23-1-22.05-1.52v-44.9q-17.43-.61-34.86-1.09v44.2c-8.94-.37-13.41-.52-22.35-.77Z" transform="translate(-155.35 -421.75)"/><path class="cls-1" d="M603,477.07c.44-11.38,2.06-20.3,4.78-26.75a55.35,55.35,0,0,1,10.65-16.64c4.39-4.64,8.89-7.77,13.5-9.34a47.46,47.46,0,0,1,14.34-2.58,57.7,57.7,0,0,1,14.47,1.59,30.24,30.24,0,0,1,13.42,7.06,43.84,43.84,0,0,1,9.52,11.9,78.32,78.32,0,0,1,6.18,16.22c1.76,6.44,2.75,14.82,3.28,24.77a87.52,87.52,0,0,1-3.06,28.06c-2.64,8.9-6,15.59-10.34,19.89a39,39,0,0,1-13.8,9.23c-4.91,1.87-10.79,2.42-17.6,1.79-8.16-.76-15.17-3-21-6.83a49.2,49.2,0,0,1-14.48-14.61,57.26,57.26,0,0,1-8.06-20.37A99.68,99.68,0,0,1,603,477.07Zm23.83,3.76c0,6.2.79,11.34,2.48,15.37a27.33,27.33,0,0,0,7.24,10.2,19,19,0,0,0,11.5,4.63c6.25.45,11-1.3,14.34-5.36s5.4-9.49,6.33-16.28a47.37,47.37,0,0,0-1-19,34.48,34.48,0,0,0-6.11-11.85q-4.36-5.69-13.47-6.08a17.29,17.29,0,0,0-14.79,6.39,27.24,27.24,0,0,0-4.62,8.81A41.51,41.51,0,0,0,626.87,480.83Z" transform="translate(-155.35 -421.75)"/><path class="cls-1" d="M700.9,424l84.45.24v34.32q-15.27-.76-30.56-1.44v99.52c-9.28-1.6-13.91-2.36-23.19-3.82v-96.7q-15.35-.65-30.7-1.2Z" transform="translate(-155.35 -421.75)"/><text class="cls-2" transform="translate(215 236.21)">恒热</text></svg>