<svg id="图层_1" data-name="图层 1" xmlns="http://www.w3.org/2000/svg" viewBox="0 0 630 139.35"><defs><style>.cls-1{fill:#c90202;}</style></defs><title>LOGO</title><path class="cls-1" d="M174,423.56l77.92-.12v29.81q-27.69.74-55.37,1.61v18.93q24.42-1.23,48.85-2.27v29.9q-24.43,1.63-48.85,3.63V526.5q29.23-3,58.54-5.36V551Q214.46,555.42,174,561.1Z" transform="translate(-174 -421.75)"/><path class="cls-1" d="M262.65,422.48h23.84q10,38.5,20.32,76.94,9.66-38.51,19.53-77h23.83q-16.5,61.83-32.48,123.8c-8.49.66-12.73,1-21.21,1.76Q279.22,485.33,262.65,422.48Z" transform="translate(-174 -421.75)"/><path class="cls-1" d="M357.39,423.32l77.93,0v27q-27.69.18-55.38.5v16.6q24.42-.45,48.85-.71v27q-24.42.39-48.85,1.14v18.83q29.26-1.12,58.55-1.63V539.2q-40.58,1-81.09,3.34Z" transform="translate(-174 -421.75)"/><path class="cls-1" d="M446,423.28h54.2a34.84,34.84,0,0,1,6.43.73,19.49,19.49,0,0,1,7.71,3.52,20.65,20.65,0,0,1,6.36,7.61,41.78,41.78,0,0,1,3.66,11.3,91.87,91.87,0,0,1,1.4,14.37,57.18,57.18,0,0,1-1.33,14.52A39.7,39.7,0,0,1,520.22,486c-1.84,3.24-3.57,5.37-5.19,6.42l-3.16,2.21q7.85,22.61,15.67,45.22c-9.75-.17-14.63-.23-24.38-.29q-7.83-22.08-15.67-44.15c-7.54,0-11.31,0-18.84.06v44.14c-9.08.08-13.62.15-22.7.33Zm22.7,26.63v20c10.6,0,15.9-.05,26.5,0a9.64,9.64,0,0,0,4.4-.94,7.63,7.63,0,0,0,3.19-3.42,11.79,11.79,0,0,0,1.12-6.27,11.32,11.32,0,0,0-2.35-6.84,7,7,0,0,0-5.66-2.51C485,449.88,479.53,449.89,468.65,449.91Z" transform="translate(-174 -421.75)"/><path class="cls-1" d="M534.72,422.42h22.35q0,21.49,0,43,17.43.23,34.86.5,0-21.72,0-43.46H614q0,60.19,0,120.39c-8.82-.5-13.23-.73-22.05-1.14V494.2q-17.43-.46-34.86-.82v47c-8.94-.28-13.41-.39-22.35-.58Q534.71,481.09,534.72,422.42Z" transform="translate(-174 -421.75)"/><path class="cls-1" d="M621.69,479.94c.21-8.91,1.4-19.69,4.77-28.17a58.43,58.43,0,0,1,10.66-17.51q6.58-7.32,13.5-9.81A45.8,45.8,0,0,1,665,421.76a56,56,0,0,1,14.47,1.65,30,30,0,0,1,13.42,7.3A45,45,0,0,1,702.37,443a81.93,81.93,0,0,1,6.18,16.66c1.76,6.62,2.76,15.22,3.28,25.46a93.18,93.18,0,0,1-3.06,29c-2.65,9.24-6.06,16.23-10.34,20.81a40.88,40.88,0,0,1-13.8,10c-4.91,2.09-10.79,2.86-17.6,2.41-8.16-.54-15.17-2.71-21-6.53a48.27,48.27,0,0,1-14.48-15,60.75,60.75,0,0,1-8.06-21.25A117.8,117.8,0,0,1,621.69,479.94Zm23.83,3.64c0,6.5.79,11.86,2.48,16.05a27.64,27.64,0,0,0,7.24,10.52,18,18,0,0,0,11.49,4.59c6.26.32,11-1.61,14.34-5.9s5.41-10,6.34-17a50.75,50.75,0,0,0-1-19.67,36.06,36.06,0,0,0-6.11-12.22q-4.37-5.85-13.47-6.2a17.12,17.12,0,0,0-14.79,6.79,29.22,29.22,0,0,0-4.62,9.27A45.41,45.41,0,0,0,645.52,483.58Z" transform="translate(-174 -421.75)"/><path class="cls-1" d="M719.55,424l84.45.18v34.32q-15.27-.57-30.56-1.09V557.93c-9.28-1.2-13.91-1.78-23.19-2.88V456.66q-15.35-.48-30.7-.9Z" transform="translate(-174 -421.75)"/></svg>